<?xml version="1.0" standalone="no"?>
<!DOCTYPE svg PUBLIC "-//W3C//DTD SVG 20010904//EN"
 "http://www.w3.org/TR/2001/REC-SVG-20010904/DTD/svg10.dtd">
<svg version="1.0" xmlns="http://www.w3.org/2000/svg"
 width="300.000000pt" height="298.000000pt" viewBox="0 0 300.000000 298.000000"
 preserveAspectRatio="xMidYMid meet">
<metadata>
Created by potrace 1.10, written by Peter Selinger 2001-2011
</metadata>
<g transform="translate(0.000000,298.000000) scale(0.100000,-0.100000)"
fill="#000000" stroke="none">
<path d="M1415 2745 c-38 -24 -70 -50 -70 -57 0 -13 202 -81 216 -72 5 3 9 25
9 50 0 39 -3 44 -22 45 l-23 0 23 11 c23 12 28 33 12 58 -10 15 -12 11 -14
-25 -1 -13 -12 -22 -33 -29 -43 -12 -42 -24 4 -28 27 -2 37 -8 39 -23 7 -43
-7 -45 -99 -17 -48 15 -87 30 -87 34 0 4 29 24 65 45 36 20 65 41 65 45 0 14
-14 8 -85 -37z"/>
<path d="M1283 2770 c-13 -5 -23 -16 -23 -25 0 -20 19 -19 27 1 3 9 15 14 29
12 13 -2 24 2 26 7 4 13 -32 16 -59 5z"/>
<path d="M995 2693 c-16 -9 -36 -24 -43 -35 -8 -11 -26 -18 -45 -18 -24 0 -28
-3 -17 -10 26 -17 50 -11 78 19 15 16 37 32 50 36 12 3 22 11 22 16 0 13 -10
11 -45 -8z"/>
<path d="M1152 2678 c-5 -7 -20 -41 -32 -75 -18 -51 -20 -66 -10 -78 14 -17
76 -36 95 -29 15 6 35 50 35 79 -1 11 2 34 6 51 5 26 2 35 -17 48 -28 19 -63
21 -77 4z m43 -4 c15 -6 15 -8 0 -24 -11 -13 -13 -20 -5 -25 18 -11 40 3 33
21 -4 12 -3 15 5 10 17 -10 15 -46 -3 -52 -11 -5 -12 -10 -3 -24 9 -14 8 -24
-5 -44 -19 -29 -34 -32 -72 -14 -31 14 -30 32 4 111 22 51 21 50 46 41z"/>
<path d="M1164 2575 c-4 -9 -2 -21 4 -27 15 -15 44 -1 40 19 -4 23 -36 29 -44
8z"/>
<path d="M1648 2669 c-23 -13 -24 -65 -2 -73 25 -10 42 -7 58 10 21 20 20 30
-4 54 -23 23 -28 24 -52 9z m42 -25 c11 -12 10 -18 -3 -32 -16 -15 -18 -15
-34 0 -13 14 -14 20 -3 32 7 9 16 16 20 16 4 0 13 -7 20 -16z"/>
<path d="M1287 2643 c-15 -26 -47 -144 -42 -153 11 -17 44 -11 55 10 6 11 20
20 30 20 13 0 20 7 20 20 0 11 -4 20 -10 20 -5 0 -10 5 -10 11 0 6 9 9 20 6
29 -7 46 26 24 47 -8 9 -21 16 -27 16 -7 0 -22 3 -33 6 -12 3 -24 2 -27 -3z
m61 -19 c33 -9 29 -35 -5 -32 -22 2 -29 -2 -31 -19 -2 -13 1 -23 7 -23 6 0 11
-4 11 -10 0 -5 -7 -7 -15 -4 -10 4 -18 -3 -25 -22 -8 -21 -14 -24 -22 -16 -9
9 -9 21 1 50 33 91 30 89 79 76z"/>
<path d="M1012 2620 c-27 -12 -53 -17 -72 -14 -23 5 -35 1 -57 -23 -15 -16
-41 -35 -56 -41 -36 -16 -34 -48 3 -44 14 1 47 4 74 5 38 3 53 9 70 29 12 14
42 35 69 46 47 21 61 45 31 56 -19 7 -11 9 -62 -14z m58 -8 c0 -4 -23 -16 -50
-27 -28 -11 -53 -27 -56 -37 -6 -19 -38 -33 -54 -23 -6 4 -26 1 -46 -5 -47
-16 -56 -4 -11 15 19 8 39 24 42 36 6 17 13 20 38 16 18 -2 48 4 72 14 43 20
65 24 65 11z"/>
<path d="M1886 2565 c-26 -36 -51 -65 -55 -65 -4 0 -20 13 -36 30 -22 23 -32
27 -42 19 -7 -6 -13 -17 -13 -23 0 -14 82 -96 96 -96 8 0 105 120 128 158 7
12 -9 42 -23 42 -4 0 -29 -29 -55 -65z m39 -4 c-15 -22 -42 -57 -60 -78 l-33
-38 -36 34 c-20 19 -36 42 -36 50 0 10 11 4 33 -17 18 -18 36 -32 39 -32 3 0
29 30 58 66 55 70 81 81 35 15z"/>
<path d="M1391 2545 c-34 -90 -35 -102 -13 -114 29 -15 31 -14 42 14 6 15 17
25 30 25 21 0 28 24 10 35 -18 11 -10 25 13 22 17 -1 23 4 25 24 3 22 -2 27
-36 37 -22 7 -42 12 -45 12 -3 0 -15 -25 -26 -55z m73 25 c34 -12 35 -34 1
-26 -18 5 -27 1 -35 -14 -9 -16 -8 -22 5 -26 8 -3 15 -10 15 -15 0 -4 -7 -6
-15 -3 -10 4 -18 -3 -25 -20 -5 -14 -14 -26 -20 -26 -14 0 -13 31 4 71 7 19
16 42 19 52 7 20 16 21 51 7z"/>
<path d="M2135 2590 c-6 -10 29 -50 44 -50 6 0 13 5 16 10 3 6 1 10 -4 10 -6
0 -20 9 -31 20 -10 10 -22 15 -25 10z"/>
<path d="M1655 2550 c-3 -5 -16 -10 -29 -10 -30 0 -66 -40 -66 -73 0 -15 -4
-27 -10 -27 -16 0 -12 -30 5 -36 8 -4 22 0 31 7 13 11 14 9 9 -13 -9 -35 13
-48 35 -20 17 20 17 20 71 -34 l54 -55 -18 -30 c-32 -56 -23 -83 48 -159 36
-38 65 -75 65 -83 0 -28 92 -197 121 -221 36 -30 87 -46 152 -46 54 0 61 10
17 27 -33 12 -40 33 -12 33 10 0 38 -20 62 -45 65 -67 124 -79 172 -37 21 18
15 32 -15 32 -31 0 -84 35 -92 60 -11 34 5 38 30 6 50 -63 51 11 1 100 -24 43
-38 91 -15 52 16 -29 29 -21 29 19 0 48 -40 106 -88 129 -21 9 -53 29 -72 45
-19 15 -52 32 -73 39 -27 8 -49 27 -78 66 -22 30 -52 59 -65 65 -33 12 -80 12
-103 -1 -15 -8 -28 0 -70 45 -54 57 -60 69 -36 79 17 6 20 32 5 41 -6 4 -17 2
-24 -4 -20 -17 -28 0 -9 21 15 17 15 20 3 28 -19 12 -27 12 -35 0z m22 -83
c32 -62 -15 -77 -74 -23 l-37 33 28 28 c27 26 28 27 48 9 11 -11 27 -32 35
-47z m138 -172 c59 -63 102 -116 96 -116 -6 -1 -14 -2 -18 -3 -5 0 -55 47
-112 106 -90 93 -113 128 -82 128 5 0 57 -52 116 -115z m152 -22 c36 -38 80
-74 101 -83 84 -34 118 -78 108 -144 -13 -85 -126 -175 -204 -162 -47 7 -75
42 -102 122 -17 50 -30 69 -75 108 -48 42 -55 52 -55 85 0 20 6 46 14 56 12
17 17 14 74 -46 37 -38 61 -73 62 -86 0 -33 44 -59 76 -45 37 18 51 55 30 87
-9 14 -25 25 -36 25 -18 0 -140 115 -140 132 0 8 26 15 60 17 18 1 41 -16 87
-66z m4 -103 c23 -13 25 -52 4 -70 -8 -7 -25 -10 -39 -6 -33 8 -43 42 -20 67
20 22 28 23 55 9z m260 -77 c27 -23 59 -76 59 -98 0 -4 -9 -4 -19 0 -31 9 -32
-7 -5 -66 14 -30 30 -65 36 -79 l9 -25 -25 24 c-21 20 -28 22 -41 11 -8 -7
-15 -19 -15 -27 0 -25 66 -83 94 -83 33 0 34 -18 2 -26 -38 -9 -88 12 -131 56
-27 28 -48 40 -67 40 -30 0 -39 -25 -16 -48 10 -10 5 -11 -22 -6 -60 11 -116
40 -138 72 -24 33 -28 47 -10 36 6 -4 40 -8 75 -10 35 -2 78 -10 95 -19 40
-19 62 -4 34 23 -18 16 -19 16 -12 -2 5 -15 3 -17 -11 -11 -10 4 -28 10 -40
12 -28 6 -30 20 -3 28 10 3 39 28 64 56 l44 49 4 -67 c2 -38 2 -70 0 -73 -2
-3 -14 7 -26 23 -22 27 -62 38 -53 15 2 -7 9 -12 15 -11 6 2 22 -8 36 -22 40
-40 52 -25 48 58 -3 39 -8 80 -13 89 -5 10 -7 29 -3 42 3 13 1 34 -6 45 -15
29 2 26 41 -6z"/>
<path d="M2026 2041 c-29 -30 -30 -61 -2 -61 18 0 68 59 63 74 -7 22 -33 16
-61 -13z m44 6 c0 -11 -41 -49 -47 -44 -7 8 25 47 39 47 4 0 8 -2 8 -3z"/>
<path d="M694 2499 c-20 -23 -11 -51 20 -57 41 -8 63 48 27 68 -26 13 -25 13
-47 -11z m46 -19 c0 -21 -24 -28 -35 -10 -8 14 3 30 21 30 8 0 14 -9 14 -20z"/>
<path d="M940 2465 c-15 -18 2 -45 30 -45 23 0 34 28 19 46 -15 18 -33 18 -49
-1z"/>
<path d="M1046 2448 c-18 -30 -27 -70 -18 -85 14 -22 226 -105 268 -105 54 0
85 17 77 40 -22 62 -72 96 -211 146 -89 32 -98 32 -116 4z m48 6 c14 -5 14 -9
1 -34 -8 -16 -15 -39 -15 -50 0 -24 -18 -23 -33 1 -6 10 -4 27 6 52 17 40 17
40 41 31z m46 -21 c-1 -21 -29 -88 -39 -91 -15 -5 -14 22 3 63 13 31 36 48 36
28z m76 -29 c22 -9 49 -20 61 -25 22 -8 22 -8 4 -49 -10 -22 -20 -42 -23 -45
-5 -6 -107 33 -122 46 -13 12 12 89 28 89 8 0 31 -7 52 -16z m126 -106 c-4
-17 -47 -36 -58 -25 -3 2 3 24 12 47 l17 42 17 -22 c10 -13 15 -31 12 -42z"/>
<path d="M2279 2437 c-44 -29 -82 -102 -73 -142 18 -91 102 -147 184 -125 46
12 100 61 100 89 0 12 -5 10 -20 -9 -11 -14 -20 -28 -20 -31 0 -13 -68 -39
-100 -39 -68 0 -130 63 -130 132 0 45 36 98 79 119 19 9 29 19 24 22 -6 4 -26
-3 -44 -16z"/>
<path d="M617 2443 c-4 -3 -7 -13 -7 -21 0 -7 -9 -21 -21 -31 -20 -16 -20 -18
-4 -31 15 -12 19 -12 31 5 8 10 14 34 14 52 0 34 -2 38 -13 26z"/>
<path d="M2028 2425 c-34 -29 -34 -33 -7 -96 23 -53 30 -57 49 -34 18 22 26
19 40 -15 22 -52 32 -34 24 43 -3 39 -8 74 -11 77 -2 2 -12 -1 -23 -8 -17 -10
-19 -8 -22 20 -4 40 -16 43 -50 13z m51 -60 c6 -3 12 -1 16 5 14 22 25 8 25
-32 0 -39 -1 -40 -14 -22 -12 15 -17 17 -27 7 -21 -21 -33 -15 -50 26 -16 38
-16 40 5 60 l21 21 8 -29 c4 -17 11 -33 16 -36z"/>
<path d="M2281 2405 c-34 -29 -56 -84 -45 -117 32 -103 161 -129 214 -44 11
18 20 40 19 47 0 8 -5 4 -11 -8 -10 -20 -12 -21 -34 -6 -32 20 -84 10 -115
-23 l-23 -25 -18 23 c-40 52 -2 158 58 158 13 0 24 5 24 10 0 19 -38 10 -69
-15z m133 -141 c22 -8 20 -31 -3 -44 -30 -16 -101 -13 -101 4 0 32 63 56 104
40z"/>
<path d="M773 2400 c-55 -11 -112 -41 -148 -79 -26 -28 -28 -34 -17 -52 7 -11
10 -24 7 -29 -3 -5 6 -21 19 -37 22 -25 30 -28 88 -28 132 0 248 60 248 129
-1 86 -71 121 -197 96z m143 -20 l27 -11 -23 -24 c-18 -19 -20 -28 -12 -38 15
-18 5 -27 -30 -27 -15 0 -37 -9 -47 -19 -20 -20 -74 -29 -104 -16 -9 4 -23 2
-31 -4 -11 -9 -15 -7 -19 9 -3 14 -13 20 -31 20 -35 0 -33 22 5 54 54 46 88
59 136 52 28 -4 42 -2 38 4 -8 13 56 13 91 0z m34 -74 c0 -26 -7 -40 -30 -59
-32 -27 -141 -57 -208 -57 -47 0 -89 28 -79 53 9 23 27 21 27 -3 0 -21 34 -29
45 -10 5 7 11 8 19 1 16 -14 96 -4 116 14 9 8 25 15 36 15 11 0 30 7 42 16 18
12 20 19 12 29 -12 15 -6 35 11 35 5 0 9 -15 9 -34z"/>
<path d="M758 2339 c-24 -13 -23 -31 2 -52 19 -16 52 -25 37 -10 -4 3 3 17 15
30 19 20 20 25 8 33 -19 12 -41 12 -62 -1z m45 -14 c1 -6 -11 -11 -28 -13 -29
-2 -29 -2 -10 13 20 16 35 16 38 0z"/>
<path d="M1408 2365 c-8 -19 -8 -28 2 -40 10 -12 9 -16 -4 -21 -20 -8 -21 -20
-1 -28 23 -8 62 10 81 39 13 21 15 31 6 50 -16 35 -68 35 -84 0z m62 0 c15
-18 4 -52 -21 -66 -16 -8 -20 -7 -18 3 1 7 -1 21 -6 31 -4 10 -2 23 5 32 16
19 24 19 40 0z"/>
<path d="M2326 2361 c-14 -15 -15 -24 -6 -40 14 -28 65 -29 80 -2 13 25 13 27
-6 45 -21 21 -47 20 -68 -3z m62 -22 c2 -9 -5 -19 -14 -23 -21 -8 -50 17 -39
34 10 16 49 8 53 -11z"/>
<path d="M1552 2288 c-18 -18 -15 -36 9 -49 29 -15 59 12 43 39 -14 22 -36 26
-52 10z"/>
<path d="M1090 2235 c-10 -12 -10 -18 0 -30 7 -8 18 -15 25 -15 7 0 18 7 25
15 10 12 10 18 0 30 -7 8 -18 15 -25 15 -7 0 -18 -7 -25 -15z"/>
<path d="M960 2194 c-49 -28 -90 -63 -90 -76 0 -4 17 -8 38 -8 34 0 40 -4 55
-36 10 -19 23 -34 30 -31 16 5 45 85 49 133 2 33 0 39 -17 42 -11 1 -40 -9
-65 -24z m70 1 c0 -19 -34 -135 -39 -135 -4 0 -12 13 -18 29 -9 25 -17 30 -49
33 l-39 3 60 38 c54 34 85 45 85 32z"/>
<path d="M1487 2214 c-12 -12 -8 -42 6 -47 21 -8 39 8 35 29 -3 19 -29 30 -41
18z"/>
<path d="M1187 2172 c-10 -10 -17 -27 -17 -38 0 -28 28 -64 49 -64 43 0 68 72
35 104 -21 21 -47 20 -67 -2z m66 -23 c14 -22 -16 -71 -38 -63 -18 7 -30 47
-21 70 7 19 45 15 59 -7z"/>
<path d="M1327 2179 c-23 -13 -22 -56 2 -70 17 -11 17 -13 2 -28 -10 -10 -28
-15 -48 -13 -20 3 -46 -3 -65 -15 -47 -27 -65 -20 -64 25 1 35 -1 37 -29 37
-25 0 -31 -4 -33 -26 -2 -14 4 -31 13 -39 14 -12 14 -15 -5 -35 -28 -30 -24
-80 5 -79 11 0 30 4 43 8 16 6 22 3 22 -8 0 -22 28 -20 123 5 82 22 99 38 79
70 -16 26 -15 37 1 15 10 -14 21 -17 45 -11 18 3 34 11 38 16 10 17 -26 59
-54 65 -25 5 -27 9 -24 39 5 39 -21 60 -51 44z m41 -42 c-2 -11 -9 -22 -15
-25 -16 -4 -27 22 -19 43 8 22 38 6 34 -18z m-224 -42 c6 -18 -2 -45 -15 -45
-12 0 -31 39 -24 50 9 15 32 12 39 -5z m270 -26 c29 -23 26 -39 -8 -39 -28 0
-74 45 -54 53 24 10 35 7 62 -14z m-97 -24 c22 -6 59 -53 49 -62 -9 -9 -139
-43 -163 -43 -46 0 -13 88 41 110 21 8 29 8 73 -5z m-162 -47 c-8 -35 -22 -49
-44 -45 -25 4 -23 25 3 52 35 35 49 32 41 -7z"/>
<path d="M2512 2182 c-42 -4 -51 -26 -23 -56 18 -20 20 -27 11 -51 -15 -41 2
-55 40 -33 27 15 29 15 46 -3 9 -10 24 -19 33 -19 11 0 6 10 -17 30 -31 29
-33 30 -58 14 -30 -20 -38 -15 -25 19 8 20 6 31 -10 51 l-20 26 25 0 c14 0 28
5 31 11 9 14 6 15 -33 11z"/>
<path d="M532 2131 c-6 -18 -20 -31 -36 -35 -31 -8 -34 -31 -6 -46 13 -7 20
-21 20 -40 0 -30 22 -42 36 -19 4 7 21 9 45 5 40 -6 44 -3 39 37 -1 10 6 27
15 37 22 24 12 40 -24 40 -20 0 -31 7 -39 25 -15 33 -38 32 -50 -4z m74 -31
c30 0 38 -14 18 -31 -10 -9 -14 -22 -10 -41 5 -26 4 -27 -20 -16 -19 9 -30 9
-45 0 -26 -16 -31 -15 -27 7 2 10 -5 28 -16 39 -18 21 -18 21 7 27 16 4 28 16
32 33 l7 27 15 -22 c9 -13 26 -23 39 -23z"/>
<path d="M387 2144 c-12 -12 -8 -42 6 -47 21 -8 39 8 35 29 -3 19 -29 30 -41
18z"/>
<path d="M1606 2131 c-10 -11 -25 -17 -35 -14 -22 6 -36 -12 -24 -29 4 -7 8
-24 8 -38 0 -20 4 -24 22 -22 12 2 24 -2 28 -8 10 -16 35 -12 42 8 4 9 16 24
27 34 21 16 21 16 -7 29 -18 8 -27 20 -27 36 0 28 -11 29 -34 4z m40 -44 c23
-13 -15 -58 -39 -45 -9 5 -21 7 -26 4 -4 -3 -8 8 -8 24 0 17 6 30 12 30 7 0
19 7 26 17 13 15 14 15 18 -3 2 -10 10 -23 17 -27z"/>
<path d="M690 2095 c-7 -8 -10 -25 -6 -39 11 -45 71 -45 82 0 8 30 -11 54 -41
54 -12 0 -28 -7 -35 -15z m58 -29 c-2 -13 -10 -21 -23 -21 -23 0 -33 34 -14
45 20 13 40 -1 37 -24z"/>
<path d="M2380 2085 c-26 -32 13 -81 48 -59 21 14 28 54 10 65 -20 13 -44 11
-58 -6z m48 -23 c3 -16 -2 -22 -16 -22 -24 0 -35 23 -19 39 16 16 31 8 35 -17z"/>
<path d="M804 2075 c-4 -9 -2 -21 4 -27 15 -15 44 -1 40 19 -4 23 -36 29 -44
8z"/>
<path d="M875 2023 c-27 -7 -67 -40 -82 -66 -7 -12 -12 -42 -13 -66 0 -37 5
-49 39 -82 65 -65 153 -55 202 24 41 65 9 151 -68 183 -33 14 -44 15 -78 7z
m85 -28 c41 -21 60 -53 60 -101 0 -107 -138 -151 -200 -64 -68 96 36 219 140
165z"/>
<path d="M933 1950 c-37 -15 -22 -60 19 -60 20 0 42 35 34 56 -6 16 -21 17
-53 4z"/>
<path d="M833 1920 c-28 -11 -29 -22 -5 -43 23 -21 32 -21 48 1 32 41 10 63
-43 42z m41 -24 c-7 -18 -29 -21 -39 -6 -3 6 4 14 17 19 28 10 30 9 22 -13z"/>
<path d="M902 1858 c-42 -9 -43 -10 -26 -29 31 -35 94 -20 94 23 0 20 -5 20
-68 6z m48 -23 c-14 -17 -46 -20 -55 -5 -3 5 9 13 27 18 39 11 45 8 28 -13z"/>
<path d="M353 2004 c-7 -3 -13 -16 -13 -29 0 -44 50 -60 74 -22 20 32 -22 67
-61 51z m45 -32 c3 -16 -2 -22 -16 -22 -24 0 -35 23 -19 39 16 16 31 8 35 -17z"/>
<path d="M2630 1966 c0 -19 -60 -32 -70 -16 -12 19 -60 4 -60 -19 0 -12 -11
-23 -30 -30 -17 -5 -33 -17 -36 -25 -3 -9 10 -46 29 -84 24 -45 38 -89 43
-131 5 -49 12 -68 35 -90 l28 -28 75 24 c42 14 76 29 76 34 0 11 7 13 -75 -16
-38 -14 -73 -21 -78 -16 -5 5 28 21 72 37 45 16 81 32 81 36 0 11 0 11 -90
-23 -46 -18 -85 -28 -90 -23 -11 12 -31 124 -24 135 3 5 12 9 19 9 11 0 13 -8
9 -29 -8 -38 6 -45 58 -25 52 20 62 29 54 43 -5 8 -18 6 -42 -4 -30 -12 -34
-12 -34 1 0 8 -4 12 -10 9 -6 -4 -7 1 -3 11 4 11 8 13 11 6 2 -8 11 -7 28 4
18 12 28 13 37 6 7 -6 23 -9 35 -5 23 6 30 27 12 38 -6 3 -8 16 -5 28 5 23 -9
56 -20 45 -3 -3 -8 -18 -11 -34 -8 -51 -17 -62 -23 -29 -5 25 -12 31 -38 33
-44 4 -73 -13 -73 -43 0 -30 25 -34 33 -5 3 12 14 20 27 20 27 0 22 -18 -11
-41 -54 -38 -64 -35 -92 33 -15 35 -27 66 -27 70 0 11 59 27 65 17 11 -16 47
-10 52 10 6 24 72 46 80 25 11 -30 21 -12 10 21 -10 35 -27 48 -27 21z m-76
-43 c8 -19 -8 -38 -23 -29 -16 10 -13 46 3 46 8 0 17 -8 20 -17z"/>
<path d="M475 1914 c-198 -49 -216 -54 -198 -61 6 -2 67 9 135 26 242 58 269
64 280 53 16 -16 59 -185 50 -194 -5 -5 -120 -37 -257 -73 -237 -62 -264 -70
-254 -79 7 -6 501 123 516 135 17 15 17 26 -8 128 -20 84 -37 112 -68 110 -9
0 -97 -21 -196 -45z"/>
<path d="M1690 1945 c-10 -12 -10 -18 0 -30 16 -20 36 -19 44 1 6 16 -9 44
-24 44 -4 0 -13 -7 -20 -15z"/>
<path d="M1361 1909 c-177 -39 -205 -51 -222 -98 -10 -25 -1 -76 76 -421 24
-107 51 -233 59 -280 17 -91 37 -127 80 -148 23 -12 42 -10 139 11 61 14 153
33 202 43 135 27 162 62 135 177 -15 66 -77 352 -99 457 -11 52 -27 130 -36
172 -22 101 -46 128 -112 127 -26 0 -126 -18 -222 -40z m284 1 c9 -10 24 -56
34 -102 94 -436 141 -664 141 -687 0 -59 -15 -65 -308 -127 -133 -28 -163 -26
-187 9 -21 32 -178 772 -171 802 4 14 16 31 29 39 27 18 393 94 424 88 12 -2
29 -12 38 -22z"/>
<path d="M1383 1853 c-13 -2 -23 -9 -23 -14 0 -11 65 -2 90 12 16 9 -25 10
-67 2z"/>
<path d="M1575 1829 c-191 -38 -359 -79 -371 -90 -11 -12 -10 -28 7 -104 12
-49 42 -193 69 -318 26 -126 53 -234 59 -240 8 -8 32 -7 94 7 45 10 136 29
202 42 66 14 126 31 133 38 10 10 6 43 -22 172 -18 87 -48 229 -66 314 -20 94
-39 161 -49 171 -12 12 -25 14 -56 8z m61 -65 c33 -136 126 -585 123 -589 -9
-8 -330 -76 -371 -78 l-43 -2 -36 170 c-20 94 -50 235 -68 315 -17 79 -27 147
-23 151 4 3 79 21 167 39 88 18 174 36 190 40 44 11 48 8 61 -46z"/>
<path d="M1435 1608 c-43 -15 -65 -37 -87 -86 -22 -48 -18 -87 14 -139 14 -24
17 -41 12 -68 -7 -39 7 -46 42 -20 10 8 39 15 63 15 163 1 223 214 81 288 -48
24 -78 26 -125 10z m130 -28 c36 -22 65 -73 65 -115 0 -37 -36 -98 -70 -118
-15 -10 -47 -17 -70 -17 -22 0 -54 -7 -70 -15 -30 -15 -30 -15 -30 13 0 15 -9
45 -20 67 -37 72 -19 147 43 185 42 26 110 26 152 0z"/>
<path d="M1430 1577 c-34 -17 -70 -74 -70 -111 0 -17 9 -46 20 -64 11 -18 20
-44 20 -57 0 -25 14 -33 25 -15 3 6 27 10 53 10 64 0 105 27 126 82 15 37 15
49 4 83 -23 70 -111 106 -178 72z m104 -11 c44 -18 66 -52 66 -101 0 -70 -59
-123 -126 -112 -19 3 -36 1 -39 -4 -10 -16 -26 -10 -23 9 1 9 -6 30 -17 46
-28 42 -25 98 5 132 42 45 79 53 134 30z"/>
<path d="M1410 1515 c-19 -23 -3 -62 37 -90 57 -38 133 -31 133 12 0 21 -42
34 -59 18 -17 -16 -65 1 -57 21 5 13 -20 54 -33 54 -5 0 -14 -7 -21 -15z m37
-36 c7 -38 45 -59 74 -41 25 16 39 15 39 -2 0 -34 -74 -28 -115 10 -14 13 -25
32 -25 44 0 31 20 24 27 -11z"/>
<path d="M1557 1088 c-24 -13 -21 -45 5 -54 15 -4 25 -1 34 11 23 31 -5 62
-39 43z"/>
<path d="M441 1845 c-96 -24 -179 -49 -184 -54 -15 -15 -1 -14 59 3 123 37
327 86 333 81 11 -11 -19 -21 -209 -69 -104 -27 -190 -52 -190 -56 0 -12 385
86 408 103 22 17 14 37 -15 36 -16 0 -106 -20 -202 -44z"/>
<path d="M1775 1860 c-17 -19 -17 -22 5 -75 25 -62 49 -82 80 -65 24 13 25 42
5 101 -22 63 -55 77 -90 39z m76 -45 c25 -57 22 -80 -11 -80 -20 0 -28 9 -43
49 -20 56 -17 76 13 76 15 0 27 -12 41 -45z"/>
<path d="M1895 1777 c14 -71 -66 -108 -111 -52 -20 25 -44 28 -44 5 0 -20 53
-70 75 -70 17 0 26 -8 34 -30 5 -17 17 -30 27 -30 13 0 15 6 10 34 -5 28 -3
37 13 45 43 23 48 131 6 131 -13 0 -15 -7 -10 -33z m25 -13 c0 -29 -17 -64
-38 -80 -10 -7 -13 -19 -8 -37 3 -15 2 -27 -3 -27 -5 0 -11 10 -13 22 -2 14
-13 24 -32 29 -31 8 -66 36 -66 52 0 5 11 -2 25 -17 46 -50 118 -21 119 47 1
41 16 52 16 11z"/>
<path d="M397 1750 c-132 -34 -180 -50 -151 -50 5 0 81 18 169 40 148 37 191
42 155 20 -8 -5 -85 -26 -170 -46 -161 -38 -167 -40 -158 -50 7 -7 272 59 322
80 44 18 49 46 9 45 -16 0 -95 -18 -176 -39z"/>
<path d="M735 1675 c-268 -71 -280 -76 -287 -102 -7 -26 44 -194 63 -206 11
-7 53 0 140 22 108 28 338 91 392 107 10 3 23 16 29 29 5 12 22 28 35 34 24
11 25 12 8 31 -10 11 -26 22 -36 25 -12 4 -21 20 -25 43 -9 51 -30 82 -57 81
-12 0 -130 -29 -262 -64z m295 1 c17 -64 18 -65 45 -78 30 -14 32 -24 5 -33
-11 -3 -20 -12 -20 -19 0 -25 -27 -36 -231 -91 -240 -65 -306 -81 -314 -74 -3
3 -16 43 -30 89 -17 59 -21 89 -14 102 10 19 26 24 314 98 110 28 201 53 203
55 12 12 33 -13 42 -49z"/>
<path d="M698 1600 c-163 -43 -168 -45 -168 -66 0 -26 24 -26 126 0 178 44
219 60 219 81 0 11 -7 21 -15 22 -8 1 -81 -16 -162 -37z m162 10 c0 -5 -3 -10
-7 -10 -5 0 -75 -18 -156 -40 -93 -24 -147 -34 -144 -27 3 11 251 85 290 86 9
1 17 -3 17 -9z"/>
<path d="M720 1524 c-47 -13 -102 -29 -122 -34 -27 -8 -38 -16 -38 -30 0 -10
4 -21 9 -24 5 -3 69 11 142 32 117 33 134 40 137 60 4 29 -16 28 -128 -4z
m110 -4 c-16 -9 -227 -70 -243 -70 -5 0 -7 5 -5 12 5 13 188 66 233 67 22 0
26 -2 15 -9z"/>
<path d="M2145 1708 c-11 -7 -34 -13 -52 -13 -37 -2 -63 -20 -63 -45 0 -9 -11
-22 -25 -28 -36 -17 -38 -65 -3 -94 24 -21 125 -25 179 -7 48 16 89 57 89 89
0 27 -27 60 -48 60 -7 0 -12 7 -12 15 0 8 -9 19 -19 25 -24 12 -21 12 -46 -2z
m38 -41 c-1 -24 1 -26 26 -21 62 13 64 -59 1 -91 -77 -40 -201 -38 -215 4 -7
24 4 51 21 51 7 0 20 13 28 29 18 33 38 43 70 35 16 -4 25 0 30 11 10 27 41
13 39 -18z"/>
<path d="M2341 1666 c-5 -13 -17 -26 -27 -30 -15 -6 -15 -8 -1 -24 8 -9 17
-26 19 -37 2 -13 10 -19 23 -17 11 2 33 3 49 2 27 0 28 2 23 29 -4 17 -2 33 3
36 22 13 10 35 -19 35 -16 0 -31 6 -35 15 -8 22 -25 18 -35 -9z m63 -20 c18 7
22 -11 6 -21 -6 -4 -8 -15 -5 -25 4 -14 -1 -19 -25 -22 -19 -3 -30 0 -30 8 0
6 -7 17 -15 24 -13 10 -12 15 8 30 14 12 26 15 33 9 6 -5 19 -7 28 -3z"/>
<path d="M294 1511 c-4 -17 -14 -31 -25 -34 -25 -7 -24 -24 1 -37 12 -6 20
-21 20 -35 0 -18 5 -25 19 -25 11 0 23 5 26 11 4 6 19 7 37 4 l30 -7 -7 40
c-4 25 -2 42 4 47 6 3 11 13 11 22 0 11 -8 14 -30 11 -21 -3 -35 1 -47 14 -23
25 -33 23 -39 -11z m41 -11 c3 -5 18 -10 32 -10 21 0 23 -3 14 -14 -7 -8 -9
-25 -5 -41 6 -24 4 -26 -14 -21 -11 4 -23 2 -27 -4 -8 -14 -25 -13 -25 2 0 6
-8 20 -17 31 -17 18 -17 19 0 28 9 6 17 17 17 24 0 17 16 20 25 5z"/>
<path d="M1820 1515 c-26 -32 13 -81 48 -59 34 22 22 74 -18 74 -10 0 -23 -7
-30 -15z m55 -25 c0 -8 -10 -16 -22 -18 -18 -3 -23 2 -23 18 0 16 5 21 23 18
12 -2 22 -10 22 -18z"/>
<path d="M2212 1396 c-56 -57 -102 -109 -102 -115 0 -7 14 -18 30 -24 42 -16
38 -39 -17 -98 -55 -58 -51 -67 37 -99 44 -16 57 -17 67 -7 14 14 82 167 124
280 31 83 37 135 17 155 -27 27 -55 11 -156 -92z m118 67 c0 -10 -4 -24 -9
-31 -6 -10 -10 -10 -21 3 -10 12 -10 18 0 30 17 20 30 19 30 -2z m34 0 c5 -16
-7 -89 -16 -98 -2 -2 -9 -1 -15 3 -8 5 -8 21 0 60 11 53 22 65 31 35z m-73
-115 c-56 -132 -125 -268 -136 -268 -7 0 -23 8 -35 18 l-23 19 32 22 c52 37
66 74 51 139 l-12 54 38 39 c28 29 41 36 50 28 14 -11 34 -4 34 12 0 5 -7 9
-16 9 -8 0 -12 5 -8 11 4 7 13 4 27 -9 l20 -21 -22 -53z m43 4 c6 -10 -83
-229 -109 -268 -15 -23 -36 -29 -37 -11 0 15 126 287 134 287 4 0 9 -4 12 -8z"/>
<path d="M2477 1479 c-52 -27 -77 -72 -77 -136 0 -28 -4 -55 -10 -58 -25 -15
-10 -73 32 -124 47 -58 81 -66 86 -21 3 23 14 30 89 56 48 17 89 36 91 43 2 6
-40 -4 -93 -24 -54 -19 -100 -35 -102 -35 -3 0 -2 -11 1 -24 9 -36 -20 -42
-38 -8 -8 15 -23 36 -35 46 -23 21 -29 80 -10 92 6 4 8 20 5 40 -9 45 14 95
58 129 29 22 47 28 93 29 54 0 57 -1 100 -48 24 -27 46 -46 50 -43 9 10 -45
76 -77 92 -41 21 -117 18 -163 -6z"/>
<path d="M1112 1468 c-7 -7 -24 -12 -39 -13 -25 0 -27 -3 -28 -42 -1 -36 2
-43 18 -43 11 0 25 -8 32 -17 12 -15 15 -14 45 15 30 31 31 34 16 51 -9 10
-16 25 -16 34 0 21 -14 29 -28 15z m28 -58 c6 0 3 -11 -7 -24 -11 -15 -22 -21
-27 -15 -6 5 -17 9 -27 9 -24 0 -13 43 14 56 17 7 24 5 29 -8 4 -10 12 -18 18
-18z"/>
<path d="M1982 1468 c-32 -32 4 -87 48 -73 25 8 37 50 20 70 -15 18 -51 20
-68 3z m58 -29 c0 -27 -28 -35 -48 -15 -16 16 -16 18 1 31 24 17 47 9 47 -16z"/>
<path d="M2085 1440 c-8 -26 6 -43 31 -38 13 2 19 12 19 28 0 34 -40 41 -50
10z"/>
<path d="M2481 1433 c-24 -21 -34 -38 -37 -68 -8 -69 0 -71 116 -27 57 21 105
43 107 49 2 6 -8 25 -22 42 -24 27 -33 31 -79 31 -42 0 -58 -5 -85 -27z m146
-7 c35 -30 30 -35 -69 -69 -95 -33 -98 -33 -98 1 1 33 18 57 56 77 42 22 79
19 111 -9z"/>
<path d="M895 1383 c-46 -12 -76 -47 -126 -148 -58 -116 -60 -144 -9 -167 21
-9 28 -18 24 -28 -26 -64 -27 -73 -10 -86 25 -18 42 -8 61 33 14 29 20 34 38
28 12 -4 36 -8 52 -9 27 -1 33 5 62 64 17 36 37 86 44 112 12 44 11 49 -6 61
-12 9 -16 21 -12 36 3 11 2 21 -3 21 -13 0 -21 33 -10 44 16 16 12 23 -21 35
-33 11 -50 12 -84 4z m87 -50 c-2 -17 1 -34 7 -37 6 -4 8 -13 4 -22 -3 -8 3
-24 13 -35 16 -17 16 -25 7 -62 -7 -23 -24 -68 -39 -101 -26 -56 -27 -58 -60
-53 -57 9 -169 71 -172 95 -5 30 86 198 122 229 23 19 38 23 75 21 45 -3 46
-4 43 -35z m-148 -301 c7 -11 -31 -72 -44 -72 -13 0 -13 23 2 55 11 25 32 33
42 17z"/>
<path d="M865 1250 c3 -5 1 -10 -5 -10 -6 0 -8 -4 -5 -10 7 -12 45 -14 45 -2
0 11 -22 32 -33 32 -4 0 -5 -4 -2 -10z"/>
<path d="M930 1202 c0 -10 21 -32 31 -32 4 0 9 9 12 20 4 16 0 20 -19 20 -13
0 -24 -4 -24 -8z"/>
<path d="M836 1169 c3 -6 1 -22 -6 -35 -11 -19 -11 -26 0 -39 18 -22 33 -19
65 15 21 21 24 30 13 30 -8 0 -27 9 -41 20 -28 22 -42 26 -31 9z m42 -42 c15
5 14 3 -2 -16 -23 -26 -42 -14 -30 20 6 19 9 20 12 7 2 -11 9 -15 20 -11z"/>
<path d="M1924 1353 c-3 -10 -10 -27 -16 -39 -5 -11 -10 -47 -11 -80 -1 -52 1
-59 18 -60 11 -1 28 -5 37 -9 11 -4 21 0 30 14 7 12 21 21 31 21 10 0 27 5 38
11 19 10 19 10 -1 36 -11 14 -20 31 -20 37 0 16 -72 86 -88 86 -7 0 -15 -8
-18 -17z m36 -17 c0 -7 8 -16 18 -18 15 -4 68 -89 59 -93 -6 -3 -115 -35 -119
-35 -12 0 -4 96 10 112 8 10 12 24 9 33 -4 9 -1 15 8 15 8 0 15 -6 15 -14z"/>
<path d="M2672 1348 c-7 -7 -12 -20 -12 -29 0 -21 26 -44 34 -30 4 5 2 12 -4
16 -16 10 -12 35 6 35 8 0 12 5 9 10 -8 13 -18 13 -33 -2z"/>
<path d="M640 1331 c-12 -24 -4 -48 20 -56 25 -8 47 3 53 26 11 41 -53 67 -73
30z m58 -18 c5 -17 -26 -29 -40 -15 -6 6 -7 15 -3 22 9 14 37 9 43 -7z"/>
<path d="M1100 1290 c-11 -11 -20 -32 -20 -47 0 -33 35 -113 49 -113 5 0 26
19 45 42 25 29 36 51 36 74 0 57 -69 85 -110 44z m82 -17 c26 -23 23 -38 -19
-84 l-37 -41 -12 33 c-25 67 -13 109 30 109 11 0 28 -7 38 -17z"/>
<path d="M1123 1254 c-3 -8 -1 -20 5 -26 16 -16 42 -2 42 22 0 24 -38 28 -47
4z"/>
<path d="M470 1275 c-18 -20 -22 -31 -17 -62 6 -35 36 -73 59 -73 19 0 68 59
68 83 0 33 -36 77 -64 77 -12 0 -33 -11 -46 -25z m84 -28 c21 -58 -52 -119
-74 -62 -22 59 -5 98 40 93 17 -2 28 -12 34 -31z"/>
<path d="M311 1266 c-9 -11 -10 -20 -1 -35 21 -40 79 -15 65 29 -7 24 -46 27
-64 6z m47 -19 c2 -10 -3 -17 -12 -17 -18 0 -29 16 -21 31 9 14 29 6 33 -14z"/>
<path d="M2444 1266 c-11 -28 1 -51 25 -51 32 0 49 28 32 49 -17 20 -50 21
-57 2z m46 -19 c0 -8 -3 -17 -7 -20 -9 -9 -34 13 -27 24 8 14 34 11 34 -4z"/>
<path d="M624 1235 c-8 -21 2 -45 19 -45 8 0 20 7 27 15 10 12 10 18 0 30 -7
8 -19 15 -27 15 -7 0 -16 -7 -19 -15z"/>
<path d="M293 1146 c4 -10 7 -22 7 -27 0 -5 5 -9 11 -9 15 0 7 43 -10 48 -10
3 -12 0 -8 -12z"/>
<path d="M466 1120 c-41 -13 -85 -58 -98 -101 -9 -33 -8 -42 11 -73 29 -46 33
-47 171 -46 79 0 115 31 108 93 -11 94 -102 155 -192 127z m135 -46 c31 -30
53 -91 43 -118 -6 -16 -44 -43 -44 -31 0 3 7 16 16 30 12 18 13 28 4 44 -11
22 -54 29 -66 10 -3 -6 -15 -8 -26 -6 -11 3 -26 3 -34 0 -17 -6 -18 -55 -2
-71 19 -19 -63 -15 -90 4 -43 30 -20 117 41 155 46 29 118 22 158 -17z m9 -93
c0 -10 -13 -30 -29 -45 -24 -23 -32 -26 -50 -17 -44 24 -51 78 -7 67 11 -2 29
1 39 9 23 17 47 9 47 -14z"/>
<path d="M1956 1094 c-29 -29 -12 -64 31 -64 31 0 44 47 18 67 -24 17 -30 16
-49 -3z m47 -18 c7 -18 -1 -26 -25 -26 -18 0 -25 20 -11 33 11 12 31 8 36 -7z"/>
<path d="M1154 1066 c-11 -8 -30 -12 -46 -9 -31 6 -102 -42 -94 -64 3 -7 -6
-20 -19 -29 -41 -27 -40 -48 6 -116 48 -72 67 -91 88 -83 7 3 58 35 112 71 71
46 99 71 99 85 0 34 -91 159 -115 159 -6 0 -20 -6 -31 -14z m86 -66 c23 -34
40 -69 38 -78 -3 -15 -182 -142 -200 -142 -8 0 -69 81 -90 119 -11 21 -10 26
17 49 17 14 29 33 27 43 -4 25 63 65 83 49 11 -9 19 -8 37 4 12 9 28 16 35 16
7 0 31 -27 53 -60z"/>
<path d="M1077 1010 c-29 -23 -35 -40 -13 -40 24 0 62 37 50 50 -8 8 -18 5
-37 -10z"/>
<path d="M1086 959 c-35 -28 -33 -73 5 -102 39 -28 85 -16 106 29 16 32 16 36
-4 62 -26 35 -70 40 -107 11z m91 -18 c17 -22 16 -41 -4 -63 -18 -20 -63 -24
-81 -6 -20 20 -14 65 10 82 25 18 56 12 75 -13z"/>
<path d="M1117 934 c-12 -12 -8 -42 6 -47 21 -8 39 8 35 29 -3 19 -29 30 -41
18z"/>
<path d="M2346 1058 c-21 -30 -4 -60 31 -56 38 4 52 32 29 57 -24 27 -41 26
-60 -1z m52 -21 c4 -20 -25 -34 -40 -19 -15 15 -1 44 19 40 10 -2 19 -11 21
-21z"/>
<path d="M2545 1070 c-3 -5 -19 -7 -35 -3 -29 5 -30 4 -24 -25 4 -17 1 -32 -5
-36 -18 -11 -13 -24 12 -31 12 -4 30 -17 40 -29 13 -15 20 -17 24 -8 2 7 12
19 20 28 22 21 7 31 -16 10 -16 -15 -19 -15 -31 -1 -7 8 -19 15 -27 15 -12 0
-13 3 -5 13 6 7 8 23 5 36 -5 21 -4 22 15 12 14 -7 23 -8 27 -1 11 18 33 11
28 -8 -5 -20 23 -50 35 -37 4 4 1 10 -5 12 -7 3 -13 18 -13 34 0 22 -5 29 -19
29 -11 0 -23 -4 -26 -10z"/>
<path d="M1846 1004 c-20 -19 -21 -68 -1 -84 20 -16 35 -4 35 28 l1 27 19 -24
c11 -13 20 -27 20 -31 0 -5 -21 -16 -47 -26 -27 -9 -68 -25 -92 -36 l-45 -19
-23 30 c-26 32 -88 61 -134 61 -42 0 -94 -26 -124 -62 -123 -147 56 -347 222
-247 36 23 73 91 73 137 0 32 21 52 54 52 23 0 -36 -156 -69 -182 -15 -11 -25
-30 -25 -44 0 -20 -4 -24 -19 -19 -31 9 -35 -13 -9 -50 27 -40 61 -48 56 -12
-3 19 1 22 27 19 19 -2 40 4 55 16 21 16 121 52 145 52 3 0 5 -10 3 -22 -2
-18 -12 -25 -47 -32 -66 -14 -127 -76 -136 -139 -5 -32 -4 -52 4 -60 8 -8 11
1 11 35 0 70 57 139 126 150 35 5 32 -16 -3 -23 -47 -9 -78 -33 -97 -72 -18
-39 -21 -87 -6 -87 6 0 10 14 10 30 0 17 7 44 15 60 24 47 113 84 101 43 -3
-10 -8 -36 -12 -58 -12 -75 13 -23 30 60 9 44 19 90 22 103 5 18 2 22 -17 22
-48 -1 -142 -29 -163 -49 -26 -25 -46 -27 -46 -6 0 8 6 15 14 15 20 0 27 13
16 30 -7 12 -13 12 -34 0 -37 -19 -46 -2 -14 24 28 22 72 118 84 182 8 44 3
44 -125 -6 -95 -37 -129 -44 -105 -21 5 5 72 33 149 61 150 56 195 76 195 88
0 4 -11 20 -23 36 -27 33 -59 31 -50 -3 7 -28 -14 -27 -22 0 -9 29 16 53 47
45 24 -6 68 -65 68 -91 0 -8 -16 -21 -35 -29 -19 -8 -35 -19 -35 -25 0 -5 39
-51 86 -100 60 -63 92 -90 106 -88 12 1 23 -4 25 -10 3 -8 -5 -13 -20 -13 -44
0 -65 -29 -87 -120 -11 -47 -23 -93 -26 -102 -3 -10 -1 -18 4 -18 6 0 13 18
17 41 l7 41 24 -23 c13 -12 27 -19 31 -15 4 4 -6 18 -22 31 -17 13 -27 27 -22
31 4 4 23 -8 42 -26 26 -25 35 -30 35 -17 0 9 -16 27 -35 39 -39 26 -41 34
-21 82 18 43 75 61 119 36 27 -14 29 -14 48 9 29 35 21 62 -26 88 -77 42 -130
39 -105 -7 6 -12 8 -25 5 -28 -7 -7 -165 156 -165 169 0 4 14 12 30 18 53 18
49 58 -12 123 -29 31 -59 36 -82 12z m-202 -104 c30 -11 66 -45 66 -62 0 -6
-13 0 -28 15 -59 56 -141 57 -196 2 -56 -55 -57 -130 -4 -184 80 -81 216 -42
234 68 4 23 10 41 15 41 27 0 -5 -91 -46 -130 -30 -29 -43 -34 -92 -38 -48 -3
-64 0 -92 20 -92 63 -93 194 -2 255 36 25 100 30 145 13z m7 -41 c36 -25 36
-33 4 -47 -41 -19 -58 -16 -45 7 12 24 13 44 1 36 -5 -3 -13 -20 -16 -38 -4
-17 -12 -37 -17 -44 -14 -18 -3 -30 34 -36 18 -3 41 -8 51 -12 9 -4 17 -3 17
3 0 5 -10 13 -22 16 -22 7 -22 7 -3 16 33 14 45 11 45 -10 0 -60 -58 -110
-126 -110 -29 0 -44 8 -75 39 -44 43 -51 88 -24 141 30 59 120 79 176 39z
m504 -152 c30 -17 40 -29 40 -47 0 -41 -32 -37 -76 11 -21 23 -39 46 -39 51 0
15 34 8 75 -15z m-418 -165 c-10 -10 -17 -24 -17 -31 0 -16 -17 -5 -31 21 -8
15 -8 19 0 14 6 -4 21 0 33 8 28 20 37 12 15 -12z"/>
<path d="M1480 785 c0 -3 12 -10 26 -15 29 -11 54 -3 33 11 -15 9 -59 12 -59
4z"/>
<path d="M1556 704 c-3 -9 -6 -23 -6 -32 1 -15 3 -14 15 2 17 22 20 46 6 46
-5 0 -12 -7 -15 -16z"/>
<path d="M2057 999 c-22 -13 -22 -36 1 -48 32 -17 57 24 29 47 -8 7 -18 7 -30
1z"/>
<path d="M2195 975 c-43 -42 -28 -129 38 -222 33 -46 93 -93 120 -93 26 0 20
17 -8 24 -66 17 -155 147 -155 227 0 46 41 89 65 69 20 -16 20 -79 0 -86 -8
-4 -15 -15 -15 -25 0 -27 33 -90 59 -113 21 -19 23 -19 50 -3 27 16 29 16 46
-3 10 -11 23 -20 28 -20 6 0 0 11 -13 25 -26 27 -49 32 -68 13 -9 -9 -19 -5
-41 16 -43 42 -55 80 -30 102 21 19 24 49 9 88 -13 34 -52 35 -85 1z"/>
<path d="M1723 974 c-3 -8 2 -23 11 -32 16 -16 18 -16 31 1 7 11 11 25 8 33
-7 19 -42 18 -50 -2z"/>
<path d="M2346 927 c-24 -18 -14 -66 19 -97 l24 -23 48 24 c41 21 48 28 48 54
0 27 -3 30 -35 31 -19 0 -45 6 -57 12 -27 15 -25 15 -47 -1z m48 -23 c11 -11
21 -12 33 -5 19 10 53 -2 53 -20 0 -6 -21 -19 -47 -31 l-46 -20 -18 23 c-36
47 -14 93 25 53z"/>
<path d="M2029 891 c-21 -16 -22 -22 -11 -45 15 -33 56 -36 72 -5 14 25 8 44
-19 58 -15 8 -24 7 -42 -8z m46 -26 c0 -13 -8 -21 -22 -23 -17 -3 -23 2 -23
16 0 10 3 22 7 26 13 13 38 1 38 -19z"/>
<path d="M661 838 l-30 -32 -29 27 c-34 32 -42 33 -76 6 -26 -20 -37 -71 -18
-83 5 -3 9 8 9 24 0 58 48 80 77 35 22 -34 40 -31 82 11 27 27 39 32 49 24 9
-8 11 -20 5 -40 -5 -19 -3 -37 6 -56 19 -37 11 -54 -25 -54 -22 0 -35 -8 -51
-30 -12 -17 -26 -28 -31 -24 -5 3 -7 9 -4 13 8 14 -19 38 -48 45 -35 8 -28
-10 9 -24 13 -5 24 -16 24 -24 0 -7 6 -19 13 -25 10 -8 20 -4 42 19 16 17 37
30 48 30 47 0 73 40 45 69 -7 6 -13 35 -13 64 0 49 -2 52 -26 55 -20 2 -35 -6
-58 -30z"/>
<path d="M1862 817 c-7 -8 -26 -52 -43 -98 -26 -71 -28 -86 -18 -106 15 -29
13 -29 126 3 75 22 93 30 93 46 0 10 -33 53 -73 94 -62 65 -74 74 -85 61z
m141 -158 c-5 -5 -46 -20 -91 -33 -120 -35 -123 -25 -51 161 l11 28 69 -74
c39 -41 66 -78 62 -82z"/>
<path d="M1216 769 c-33 -21 -66 -39 -74 -39 -9 0 -44 -5 -80 -11 -54 -10 -73
-19 -123 -61 -32 -27 -59 -53 -59 -58 0 -15 90 -199 100 -205 17 -10 12 3 -36
106 l-47 99 44 39 c50 46 56 48 76 24 13 -17 14 -16 9 7 -5 25 -3 26 62 37 63
10 68 9 85 -11 l19 -21 -6 26 c-5 23 1 30 45 58 28 17 52 31 54 31 5 0 75
-133 75 -142 0 -20 -114 -159 -162 -199 -29 -24 -55 -46 -58 -49 -3 -3 -18
-14 -33 -24 -16 -9 -26 -20 -23 -23 3 -3 17 2 31 11 29 19 53 12 34 -10 -9
-11 -9 -14 1 -14 6 0 40 28 75 61 63 60 99 73 89 31 -3 -10 2 -24 10 -31 18
-15 20 -8 6 20 -6 10 -8 19 -5 19 10 0 55 -32 55 -39 0 -3 -25 -22 -55 -41
-30 -19 -55 -41 -55 -48 0 -9 19 0 48 22 26 20 70 50 99 66 28 17 53 36 56 43
5 15 -157 347 -175 358 -18 12 -15 13 -82 -32z m129 -209 c-21 -28 -35 -53
-32 -56 2 -3 28 -22 56 -43 29 -22 47 -42 42 -46 -13 -8 -121 71 -121 89 0 19
83 131 88 118 2 -7 -13 -35 -33 -62z m82 -39 c41 -90 30 -105 -41 -54 -28 20
-52 38 -54 39 -5 3 50 84 57 84 3 -1 20 -32 38 -69z m-193 -92 c-43 -43 -74
-61 -74 -43 0 13 115 112 119 102 2 -6 -18 -32 -45 -59z"/>
<path d="M1202 635 c12 -27 34 -35 24 -9 -3 9 -6 20 -6 25 0 5 -7 9 -15 9 -12
0 -13 -4 -3 -25z"/>
<path d="M1030 622 c0 -15 28 -47 35 -40 8 8 -13 48 -25 48 -6 0 -10 -4 -10
-8z"/>
<path d="M716 611 c-8 -13 -3 -61 6 -61 4 0 8 11 8 25 0 22 3 24 19 15 13 -7
22 -7 26 0 11 18 25 10 25 -14 0 -13 6 -27 13 -29 8 -4 4 -13 -13 -27 l-25
-22 30 7 c43 9 51 21 31 44 -11 12 -16 29 -13 41 7 26 -14 36 -42 20 -15 -7
-27 -8 -40 0 -12 6 -22 6 -25 1z"/>
<path d="M1140 570 c-24 -24 -24 -29 -5 -57 15 -22 69 -46 79 -36 12 13 5 82
-10 97 -21 21 -40 20 -64 -4z m66 -35 c8 -44 1 -52 -31 -37 -46 21 -46 72 -1
72 21 0 26 -6 32 -35z"/>
<path d="M2112 568 c-32 -32 2 -79 43 -60 39 18 27 72 -15 72 -9 0 -21 -5 -28
-12z m48 -23 c0 -21 -30 -31 -40 -14 -11 17 -3 29 21 29 10 0 19 -7 19 -15z"/>
<path d="M1490 554 c-11 -12 -10 -18 3 -32 16 -15 18 -15 34 0 13 14 14 20 3
32 -7 9 -16 16 -20 16 -4 0 -13 -7 -20 -16z"/>
<path d="M1598 476 c-12 -17 -24 -22 -42 -19 -33 7 -33 -10 -2 -30 17 -12 22
-22 19 -41 -7 -34 10 -33 26 0 10 22 16 25 41 19 37 -8 39 7 4 24 -22 10 -25
16 -19 41 8 36 -4 38 -27 6z m11 -57 c-8 -5 -17 -9 -21 -9 -12 0 -9 25 4 38 9
9 14 9 21 -4 6 -11 5 -19 -4 -25z"/>
<path d="M1656 351 c-10 -11 -15 -25 -11 -30 10 -17 26 -13 23 6 -2 10 4 19
14 21 11 2 18 -5 20 -20 4 -20 5 -21 12 -5 9 19 -8 47 -29 47 -6 0 -20 -9 -29
-19z"/>
</g>
</svg>
